<?xml version="1.0" encoding="utf-8"?>
<!-- Generator: Adobe Illustrator 19.2.0, SVG Export Plug-In . SVG Version: 6.00 Build 0)  -->
<svg version="1.1" id="Capa_1" xmlns="http://www.w3.org/2000/svg" xmlns:xlink="http://www.w3.org/1999/xlink" x="0px" y="0px"
	 viewBox="0 0 58 58" style="enable-background:new 0 0 58 58;" xml:space="preserve">
<style type="text/css">
	.st0{fill:#8BAFAE;}
	.st1{fill:#018A8B;}
	.st2{fill:#69C2C4;}
	.st3{fill:#F2ECBF;}
	.st4{fill:#BAB395;}
</style>
<polygon class="st0" points="52,20.4 52,29.3 29,42 6,29.3 6,20.4 0,26 0,58 58,58 58,26 "/>
<path class="st0" d="M39.7,9l-8.9-8.3c-1-1-2.7-1-3.7,0L18.3,9H39.7z"/>
<path class="st1" d="M0.1,26l57.5,31.7c0,0.1,0,0.1-0.1,0.2H0.1C0.1,58,0,57.9,0,57.9L0.1,26C0,26.1,0.1,26,0.1,26z"/>
<path class="st2" d="M57.9,26L29,42l28.6,15.8c0,0.1,0,0.1-0.1,0.2h0.3c0.1,0,0.1-0.1,0.1-0.1L57.9,26C58,26.1,58,26,57.9,26z"/>
<g>
	<polygon class="st3" points="29,42 52,29.3 52,9 6,9 6,29.3 	"/>
</g>
<path class="st4" d="M32,17h-6c-0.6,0-1-0.4-1-1s0.4-1,1-1h6c0.6,0,1,0.4,1,1C33,16.6,32.6,17,32,17z"/>
<path class="st4" d="M41,32h-7c-0.6,0-1-0.4-1-1s0.4-1,1-1h7c0.6,0,1,0.4,1,1S41.6,32,41,32z"/>
<path class="st4" d="M21,24h-5c-0.6,0-1-0.4-1-1s0.4-1,1-1h5c0.6,0,1,0.4,1,1S21.6,24,21,24z"/>
<path class="st4" d="M37,24h-8c-0.6,0-1-0.4-1-1s0.4-1,1-1h8c0.6,0,1,0.4,1,1S37.6,24,37,24z"/>
<path class="st4" d="M25,24c-0.3,0-0.5-0.1-0.7-0.3C24.1,23.5,24,23.3,24,23c0-0.3,0.1-0.5,0.3-0.7c0.4-0.4,1-0.4,1.4,0
	c0.2,0.2,0.3,0.4,0.3,0.7c0,0.3-0.1,0.5-0.3,0.7C25.5,23.9,25.3,24,25,24z"/>
<path class="st4" d="M30,32H20c-0.6,0-1-0.4-1-1s0.4-1,1-1h10c0.6,0,1,0.4,1,1S30.6,32,30,32z"/>
<path class="st4" d="M16,32c-0.3,0-0.5-0.1-0.7-0.3C15.1,31.5,15,31.3,15,31c0-0.3,0.1-0.5,0.3-0.7c0.4-0.4,1.1-0.4,1.4,0
	c0.2,0.2,0.3,0.4,0.3,0.7s-0.1,0.5-0.3,0.7C16.5,31.9,16.3,32,16,32z"/>
<path class="st4" d="M41,24c-0.3,0-0.5-0.1-0.7-0.3C40.1,23.5,40,23.3,40,23c0-0.3,0.1-0.5,0.3-0.7c0.4-0.4,1-0.4,1.4,0
	c0.2,0.2,0.3,0.4,0.3,0.7s-0.1,0.5-0.3,0.7C41.5,23.9,41.3,24,41,24z"/>
</svg>
